<svg width="24" height="24" viewBox="0 0 24 24" fill="none" xmlns="http://www.w3.org/2000/svg">
<mask id="mask0_14832_9068" style="mask-type:alpha" maskUnits="userSpaceOnUse" x="0" y="0" width="24" height="24">
<rect width="24" height="24" fill="#D9D9D9"/>
</mask>
<g mask="url(#mask0_14832_9068)">
<path d="M11.9818 21C10.7538 21 9.59392 20.7635 8.50208 20.2904C7.41008 19.8174 6.45663 19.1733 5.64174 18.3583C4.82668 17.5434 4.18263 16.5884 3.70958 15.4934C3.23653 14.3984 3 13.2339 3 12C3 10.7503 3.24292 9.57789 3.72876 8.48289C4.21461 7.38789 4.87445 6.43539 5.70829 5.62539C6.54197 4.81524 7.51729 4.17513 8.63424 3.70508C9.75103 3.23503 10.9422 3 12.2077 3C13.3919 3 14.5142 3.20195 15.5744 3.60584C16.6348 4.00974 17.5661 4.56876 18.3682 5.28292C19.1705 5.99708 19.8096 6.84576 20.2857 7.82897C20.7619 8.81203 21 9.87805 21 11.0271C21 12.6668 20.5127 13.9494 19.538 14.8748C18.5633 15.8004 17.3138 16.2632 15.7895 16.2632H14.0733C13.8036 16.2632 13.588 16.3512 13.4265 16.5272C13.265 16.7034 13.1842 16.9118 13.1842 17.1523C13.1842 17.445 13.3026 17.7493 13.5395 18.0651C13.7763 18.3808 13.8947 18.7434 13.8947 19.1526C13.8947 19.7781 13.7217 20.2423 13.3756 20.5455C13.0293 20.8485 12.5647 21 11.9818 21ZM6.78947 12.7105C7.12705 12.7105 7.40882 12.5976 7.63476 12.3716C7.86071 12.1457 7.97368 11.8639 7.97368 11.5263C7.97368 11.1887 7.86071 10.907 7.63476 10.681C7.40882 10.4551 7.12705 10.3421 6.78947 10.3421C6.45189 10.3421 6.17013 10.4551 5.94418 10.681C5.71824 10.907 5.60526 11.1887 5.60526 11.5263C5.60526 11.8639 5.71824 12.1457 5.94418 12.3716C6.17013 12.5976 6.45189 12.7105 6.78947 12.7105ZM9.63158 8.92105C9.96916 8.92105 10.2509 8.80808 10.4769 8.58213C10.7028 8.35618 10.8158 8.07442 10.8158 7.73684C10.8158 7.39926 10.7028 7.1175 10.4769 6.89155C10.2509 6.66561 9.96916 6.55263 9.63158 6.55263C9.294 6.55263 9.01224 6.66561 8.78629 6.89155C8.56034 7.1175 8.44737 7.39926 8.44737 7.73684C8.44737 8.07442 8.56034 8.35618 8.78629 8.58213C9.01224 8.80808 9.294 8.92105 9.63158 8.92105ZM14.3684 8.92105C14.706 8.92105 14.9878 8.80808 15.2137 8.58213C15.4397 8.35618 15.5526 8.07442 15.5526 7.73684C15.5526 7.39926 15.4397 7.1175 15.2137 6.89155C14.9878 6.66561 14.706 6.55263 14.3684 6.55263C14.0308 6.55263 13.7491 6.66561 13.5231 6.89155C13.2972 7.1175 13.1842 7.39926 13.1842 7.73684C13.1842 8.07442 13.2972 8.35618 13.5231 8.58213C13.7491 8.80808 14.0308 8.92105 14.3684 8.92105ZM17.2105 12.7105C17.5481 12.7105 17.8299 12.5976 18.0558 12.3716C18.2818 12.1457 18.3947 11.8639 18.3947 11.5263C18.3947 11.1887 18.2818 10.907 18.0558 10.681C17.8299 10.4551 17.5481 10.3421 17.2105 10.3421C16.8729 10.3421 16.5912 10.4551 16.3652 10.681C16.1393 10.907 16.0263 11.1887 16.0263 11.5263C16.0263 11.8639 16.1393 12.1457 16.3652 12.3716C16.5912 12.5976 16.8729 12.7105 17.2105 12.7105Z" fill="#FAFDFF"/>
</g>
</svg>
