<svg width="24" height="24" viewBox="0 0 24 24" fill="none" xmlns="http://www.w3.org/2000/svg">
<path d="M20.3328 3.66664H12.8329V2.83332C12.8329 2.37313 12.4598 2 11.9996 2C11.5394 2 11.1663 2.37313 11.1663 2.83332V3.66664H3.66633C3.20609 3.66664 2.83301 4.03977 2.83301 4.49996V17.8331C2.83301 18.2932 3.20609 18.6664 3.66633 18.6664H7.31797L6.2543 20.7938C6.04848 21.2055 6.21531 21.706 6.62695 21.9118C7.03867 22.1177 7.53918 21.9508 7.74492 21.5391L9.18129 18.6664H14.8179L16.2542 21.5391C16.4002 21.8312 16.6945 22 17.0002 22C17.1254 22 17.2525 21.9716 17.3721 21.9118C17.7838 21.706 17.9506 21.2055 17.7448 20.7938L16.6811 18.6664H20.3328C20.793 18.6664 21.1661 18.2932 21.1661 17.8331V4.49996C21.1661 4.03977 20.793 3.66664 20.3328 3.66664ZM17.6956 9.00602L13.7673 12.9343C13.611 13.0906 13.399 13.1784 13.178 13.1784C12.957 13.1784 12.745 13.0905 12.5888 12.9342L10.8211 11.1664L7.48203 14.5055C7.3193 14.6683 7.10605 14.7497 6.89281 14.7497C6.67953 14.7497 6.46625 14.6683 6.30359 14.5055C5.97805 14.1801 5.97805 13.6525 6.30356 13.3271L10.2319 9.39871C10.3882 9.24242 10.6001 9.15465 10.8211 9.15465C11.0421 9.15465 11.2541 9.24242 11.4104 9.39871L13.1781 11.1665L16.5171 7.82746C16.8426 7.50207 17.3702 7.50207 17.6956 7.82746C18.0211 8.15293 18.0211 8.68055 17.6956 9.00602Z" fill="#FAFDFF"/>
</svg>
